<?xml version="1.0" encoding="UTF-8" standalone="no"?>
<svg
   xmlns:dc="http://purl.org/dc/elements/1.1/"
   xmlns:cc="http://creativecommons.org/ns#"
   xmlns:rdf="http://www.w3.org/1999/02/22-rdf-syntax-ns#"
   xmlns:svg="http://www.w3.org/2000/svg"
   xmlns="http://www.w3.org/2000/svg"
   xmlns:sodipodi="http://sodipodi.sourceforge.net/DTD/sodipodi-0.dtd"
   xmlns:inkscape="http://www.inkscape.org/namespaces/inkscape"
   width="128"
   height="128"
   version="1.1"
   viewBox="0 0 128 128"
   id="svg6"
   sodipodi:docname="folder.svg"
   inkscape:version="0.92.4 (5da689c313, 2019-01-14)">
  <metadata
     id="metadata12">
    <rdf:RDF>
      <cc:Work
         rdf:about="">
        <dc:format>image/svg+xml</dc:format>
        <dc:type
           rdf:resource="http://purl.org/dc/dcmitype/StillImage" />
      </cc:Work>
    </rdf:RDF>
  </metadata>
  <defs
     id="defs10" />
  <sodipodi:namedview
     pagecolor="#ffffff"
     bordercolor="#666666"
     borderopacity="1"
     objecttolerance="10"
     gridtolerance="10"
     guidetolerance="10"
     inkscape:pageopacity="0"
     inkscape:pageshadow="2"
     inkscape:window-width="1920"
     inkscape:window-height="1137"
     id="namedview8"
     showgrid="false"
     inkscape:zoom="1.84375"
     inkscape:cx="64"
     inkscape:cy="64"
     inkscape:window-x="-8"
     inkscape:window-y="344"
     inkscape:window-maximized="1"
     inkscape:current-layer="svg6" />
  <path
     d="m10 19h38a6 6 90 0 1 6 6v6h64a6 6 90 0 1 6 6v66a6 6 90 0 1-6 6h-108a6 6 90 0 1-6-6v-78a6 6 90 0 1 6-6z"
     fill="#aaa"
     stroke="#aaa"
     stroke-linejoin="round"
     stroke-width="3"
     id="path2"
     style="fill:#6a6867;fill-opacity:1" />
  <path
     d="m10 35h108a6 6 90 0 1 6 6v62a6 6 90 0 1-6 6h-108a6 6 90 0 1-6-6v-62a6 6 90 0 1 6-6z"
     fill="#777"
     stroke="#777"
     stroke-linejoin="round"
     stroke-width="3"
     id="path4"
     style="fill:#000000;fill-opacity:1" />
</svg>
