<?xml version="1.0" encoding="UTF-8" standalone="no"?>
<svg
   xmlns:dc="http://purl.org/dc/elements/1.1/"
   xmlns:cc="http://creativecommons.org/ns#"
   xmlns:rdf="http://www.w3.org/1999/02/22-rdf-syntax-ns#"
   xmlns:svg="http://www.w3.org/2000/svg"
   xmlns="http://www.w3.org/2000/svg"
   xmlns:sodipodi="http://sodipodi.sourceforge.net/DTD/sodipodi-0.dtd"
   xmlns:inkscape="http://www.inkscape.org/namespaces/inkscape"
   width="80"
   height="39"
   version="1.1"
   viewBox="0 0 80 39"
   id="svg4"
   sodipodi:docname="off.svg"
   inkscape:version="0.92.4 (5da689c313, 2019-01-14)">
  <metadata
     id="metadata10">
    <rdf:RDF>
      <cc:Work
         rdf:about="">
        <dc:format>image/svg+xml</dc:format>
        <dc:type
           rdf:resource="http://purl.org/dc/dcmitype/StillImage" />
        <dc:title />
      </cc:Work>
    </rdf:RDF>
  </metadata>
  <defs
     id="defs8" />
  <sodipodi:namedview
     pagecolor="#ffffff"
     bordercolor="#666666"
     borderopacity="1"
     objecttolerance="10"
     gridtolerance="10"
     guidetolerance="10"
     inkscape:pageopacity="0"
     inkscape:pageshadow="2"
     inkscape:window-width="1920"
     inkscape:window-height="1017"
     id="namedview6"
     showgrid="false"
     inkscape:zoom="6.2755727"
     inkscape:cx="-31.943304"
     inkscape:cy="16"
     inkscape:window-x="-8"
     inkscape:window-y="-8"
     inkscape:window-maximized="1"
     inkscape:current-layer="svg4" />
  <g
     id="g4535">
    <path
       d="m 10.83985,2.8618031 h 57.6 c 3.9756,0 7.2,3.2244 7.2,7.1999999 v 19.2 c 0,3.9756 -3.2244,7.2 -7.2,7.2 h -57.6 c -3.9755996,0 -7.1999996,-3.2244 -7.1999996,-7.2 v -19.2 c 0,-3.9755999 3.2244,-7.1999999 7.1999996,-7.1999999 z"
       id="outline-5"
       inkscape:connector-curvature="0"
       style="fill:#ff0000;stroke:#ff0000;stroke-width:3.5999999;stroke-linejoin:round;fill-opacity:1;stroke-opacity:1" />
    <path
       style="fill:#ffffff;stroke-width:1.83576047"
       id="path3"
       inkscape:connector-curvature="0"
       d="m 13.229298,5.0885638 c 1.459425,-0.5601053 3.11331,-0.8401579 4.963583,-0.8401579 1.850273,0 3.496458,0.2800526 4.940479,0.8401579 1.444022,0.5478529 2.624268,1.2917427 3.542665,2.2351701 0.931877,0.9434273 1.692395,2.0846415 2.27963,3.4253941 0.602637,1.326749 1.022367,2.721762 1.263037,4.185036 0.256073,1.449272 0.383147,3.022819 0.383147,4.717137 0,1.694319 -0.127074,3.274866 -0.383147,4.738141 -0.24067,1.449272 -0.662324,2.844285 -1.263037,4.185036 -0.600713,1.340752 -1.368933,2.481967 -2.300808,3.425394 -0.931875,0.929424 -2.12175,1.675065 -3.565771,2.235171 -1.444022,0.560104 -3.090206,0.840157 -4.940479,0.840157 -1.850272,0 -3.504158,-0.280053 -4.963583,-0.840157 C 11.740993,33.674937 10.553044,32.929296 9.6192448,31.999872 8.6873688,31.056445 7.9191492,29.91523 7.3184366,28.574478 6.2209808,26.113516 5.6722527,23.125704 5.6722527,19.611044 c 0,-5.580049 1.3246497,-9.6810705 3.972022,-12.3065637 C 10.589626,6.3733052 11.785277,5.6346664 13.229298,5.0885638 Z m 4.963583,4.7994024 c -1.488305,0 -2.616566,0.8279048 -3.384786,2.4819658 -0.752816,1.654061 -1.128262,4.081768 -1.128262,7.281369 0,3.185598 0.375446,5.613305 1.128262,7.281368 0.766295,1.654062 1.881078,2.481967 3.338578,2.481967 2.947728,0 4.422556,-3.253861 4.422556,-9.763335 0,-6.509474 -1.457499,-9.7633348 -4.376348,-9.7633348 z" />
    <path
       style="fill:#ffffff;stroke-width:1.83576047"
       id="path5"
       inkscape:connector-curvature="0"
       d="m 52.398861,10.257285 h -8.415757 v 7.199103 h 7.851626 v 5.559046 H 43.983104 V 34.686627 H 36.131478 V 4.6982405 h 16.267383 z" />
    <path
       style="fill:#ffffff;stroke-width:1.83576047"
       id="path7"
       inkscape:connector-curvature="0"
       d="m 73.608647,10.257285 h -8.415756 v 7.199103 h 7.851625 v 5.559046 H 65.192891 V 34.686627 H 57.341264 V 4.6982405 h 16.267383 z" />
  </g>
</svg>
