<?xml version="1.0" encoding="UTF-8" standalone="no"?>
<svg
   xmlns:dc="http://purl.org/dc/elements/1.1/"
   xmlns:cc="http://creativecommons.org/ns#"
   xmlns:rdf="http://www.w3.org/1999/02/22-rdf-syntax-ns#"
   xmlns:svg="http://www.w3.org/2000/svg"
   xmlns="http://www.w3.org/2000/svg"
   xmlns:sodipodi="http://sodipodi.sourceforge.net/DTD/sodipodi-0.dtd"
   xmlns:inkscape="http://www.inkscape.org/namespaces/inkscape"
   width="80"
   height="39"
   version="1.1"
   viewBox="0 0 80 39"
   id="svg4"
   sodipodi:docname="off.svg"
   inkscape:version="0.92.4 (5da689c313, 2019-01-14)">
  <metadata
     id="metadata10">
    <rdf:RDF>
      <cc:Work
         rdf:about="">
        <dc:format>image/svg+xml</dc:format>
        <dc:type
           rdf:resource="http://purl.org/dc/dcmitype/StillImage" />
        <dc:title></dc:title>
      </cc:Work>
    </rdf:RDF>
  </metadata>
  <defs
     id="defs8" />
  <sodipodi:namedview
     pagecolor="#ffffff"
     bordercolor="#666666"
     borderopacity="1"
     objecttolerance="10"
     gridtolerance="10"
     guidetolerance="10"
     inkscape:pageopacity="0"
     inkscape:pageshadow="2"
     inkscape:window-width="1920"
     inkscape:window-height="1017"
     id="namedview6"
     showgrid="false"
     inkscape:zoom="6.2755727"
     inkscape:cx="-4.7744692"
     inkscape:cy="16"
     inkscape:window-x="-8"
     inkscape:window-y="-8"
     inkscape:window-maximized="1"
     inkscape:current-layer="svg4" />
  <g
     id="g3727"
     transform="matrix(1.2,0,0,1.2,1.2398504,0.46180308)">
    <path
       d="m 8,2 h 48 c 3.313,0 6,2.687 6,6 v 16 c 0,3.313 -2.687,6 -6,6 H 8 C 4.687,30 2,27.313 2,24 V 8 C 2,4.687 4.687,2 8,2 Z"
       id="outline-5"
       inkscape:connector-curvature="0"
       style="fill:#f40000;stroke:#000000;stroke-width:3;stroke-linejoin:round" />
    <g
       id="label_off">
	<path
   d="m 18.283,7.674 c 0.758,-0.32 1.617,-0.48 2.578,-0.48 0.961,0 1.816,0.16 2.566,0.48 0.75,0.313 1.363,0.738 1.84,1.277 0.484,0.539 0.879,1.191 1.184,1.957 0.313,0.758 0.531,1.555 0.656,2.391 0.133,0.828 0.199,1.727 0.199,2.695 0,0.968 -0.066,1.871 -0.199,2.707 -0.125,0.828 -0.344,1.625 -0.656,2.391 -0.312,0.766 -0.711,1.418 -1.195,1.957 -0.484,0.531 -1.102,0.957 -1.852,1.277 -0.75,0.32 -1.605,0.48 -2.566,0.48 -0.961,0 -1.82,-0.16 -2.578,-0.48 -0.75,-0.32 -1.367,-0.746 -1.852,-1.277 -0.484,-0.539 -0.883,-1.191 -1.195,-1.957 -0.57,-1.406 -0.855,-3.113 -0.855,-5.121 0,-3.188 0.688,-5.531 2.063,-7.031 0.491,-0.532 1.112,-0.954 1.862,-1.266 z m 2.578,2.742 c -0.773,0 -1.359,0.473 -1.758,1.418 -0.391,0.945 -0.586,2.332 -0.586,4.16 0,1.82 0.195,3.207 0.586,4.16 0.398,0.945 0.977,1.418 1.734,1.418 1.531,0 2.297,-1.859 2.297,-5.578 0,-3.719 -0.757,-5.578 -2.273,-5.578 z"
   inkscape:connector-curvature="0"
   id="path3"
   style="fill:#ffffff" />

	<path
   d="m 38.627,10.627 h -4.371 v 4.113 h 4.078 v 3.176 h -4.078 v 6.668 H 30.178 V 7.451 h 8.449 z"
   inkscape:connector-curvature="0"
   id="path5"
   style="fill:#ffffff" />

	<path
   d="m 49.643,10.627 h -4.371 v 4.113 h 4.078 v 3.176 h -4.078 v 6.668 H 41.194 V 7.451 h 8.449 z"
   inkscape:connector-curvature="0"
   id="path7"
   style="fill:#ffffff" />

</g>
  </g>
</svg>
