<?xml version="1.0" encoding="UTF-8" standalone="no"?>
<svg
   xmlns:dc="http://purl.org/dc/elements/1.1/"
   xmlns:cc="http://creativecommons.org/ns#"
   xmlns:rdf="http://www.w3.org/1999/02/22-rdf-syntax-ns#"
   xmlns:svg="http://www.w3.org/2000/svg"
   xmlns="http://www.w3.org/2000/svg"
   xmlns:sodipodi="http://sodipodi.sourceforge.net/DTD/sodipodi-0.dtd"
   xmlns:inkscape="http://www.inkscape.org/namespaces/inkscape"
   width="80"
   height="39"
   version="1.1"
   viewBox="0 0 80 39"
   id="svg4"
   sodipodi:docname="on.svg"
   inkscape:version="0.92.4 (5da689c313, 2019-01-14)">
  <metadata
     id="metadata10">
    <rdf:RDF>
      <cc:Work
         rdf:about="">
        <dc:format>image/svg+xml</dc:format>
        <dc:type
           rdf:resource="http://purl.org/dc/dcmitype/StillImage" />
        <dc:title />
      </cc:Work>
    </rdf:RDF>
  </metadata>
  <defs
     id="defs8">
    <clipPath
       clipPathUnits="userSpaceOnUse"
       id="clipPath830">
      <g
         id="use832"
         inkscape:label="Clip">
        <path
           id="path848"
           d="M 11.645444,3.0130399 A 7.2,7.2 0 0 0 4.4454445,10.21304 v 19.2 a 7.2,7.2 0 0 0 7.1999995,7.2 h 57.6 a 7.2,7.2 0 0 0 7.2,-7.2 v -19.2 a 7.2,7.2 0 0 0 -7.2,-7.2000001 z m 19.525781,6.232031 c 1.153125,0 2.179688,0.192188 3.079688,0.576563 0.9,0.3750001 1.635937,0.8859371 2.207812,1.5328121 0.58125,0.646875 1.054688,1.429688 1.420313,2.348438 0.375,0.909375 0.6375,1.865625 0.7875,2.86875 0.159375,0.99375 0.239062,2.071875 0.239062,3.234375 0,1.1625 -0.07969,2.245312 -0.239062,3.248437 -0.15,0.99375 -0.4125,1.95 -0.7875,2.86875 -0.375,0.91875 -0.853125,1.701563 -1.434375,2.348438 -0.58125,0.6375 -1.321875,1.148437 -2.221875,1.532812 -0.9,0.384375 -1.926563,0.576563 -3.079688,0.576563 -1.153125,0 -2.184375,-0.192188 -3.09375,-0.576563 -0.9,-0.384375 -1.640625,-0.895312 -2.221875,-1.532812 -0.58125,-0.646875 -1.059375,-1.429688 -1.434375,-2.348438 -0.684375,-1.6875 -1.026562,-3.735937 -1.026562,-6.145312 0,-3.825 0.825,-6.6375 2.475,-8.4375 0.590625,-0.6375 1.335937,-1.14375 2.235937,-1.5187501 0.909375,-0.384375 1.940625,-0.576563 3.09375,-0.576563 z m 11.179688,0.309375 h 5.625 L 52.91185,21.099759 V 9.5544459 h 4.6125 V 30.113821 H 51.927475 L 46.991538,18.554446 V 30.113821 H 42.350913 Z M 31.171225,13.112259 c -0.928125,0 -1.63125,0.567187 -2.109375,1.701562 -0.46875,1.134375 -0.703125,2.798438 -0.703125,4.992188 0,2.184375 0.234375,3.848437 0.703125,4.992187 0.478125,1.134375 1.171875,1.701563 2.08125,1.701563 1.8375,0 2.75625,-2.23125 2.75625,-6.69375 0,-4.4625 -0.909375,-6.69375 -2.728125,-6.69375 z"
           style="fill:#3a6041;fill-opacity:1;stroke-width:1.20000005"
           inkscape:connector-curvature="0" />
      </g>
    </clipPath>
  </defs>
  <sodipodi:namedview
     pagecolor="#ffffff"
     bordercolor="#666666"
     borderopacity="1"
     objecttolerance="10"
     gridtolerance="10"
     guidetolerance="10"
     inkscape:pageopacity="0"
     inkscape:pageshadow="2"
     inkscape:window-width="1920"
     inkscape:window-height="1017"
     id="namedview6"
     showgrid="false"
     inkscape:zoom="6.2755727"
     inkscape:cx="0.81134141"
     inkscape:cy="16"
     inkscape:window-x="-8"
     inkscape:window-y="-8"
     inkscape:window-maximized="1"
     inkscape:current-layer="svg4" />
  <path
     id="outline"
     d="m 11.645444,3.0130399 h 57.6 a 7.2,7.2 0 0 1 7.2,7.2000001 v 19.2 a 7.2,7.2 0 0 1 -7.2,7.2 h -57.6 a 7.2,7.2 0 0 1 -7.1999996,-7.2 v -19.2 A 7.2,7.2 0 0 1 11.645444,3.0130399 Z"
     style="fill:#386040;fill-opacity:1;stroke:#385e41;stroke-width:3.5999999;stroke-linejoin:round;stroke-opacity:1"
     inkscape:connector-curvature="0" />
  <g
     aria-label="ON"
     transform="scale(1.0144255,0.98577965)"
     style="font-style:normal;font-variant:normal;font-weight:normal;font-stretch:normal;font-size:38.84326553px;line-height:1.25;font-family:'Open Sans';-inkscape-font-specification:'Open Sans';letter-spacing:0px;word-spacing:0px;fill:#ffffff;fill-opacity:1;stroke:#ffffff;stroke-width:2.8263123;stroke-miterlimit:4;stroke-dasharray:none;stroke-opacity:1"
     id="text838">
    <path
       d="m 25.662262,35.192614 q -5.974428,0 -9.559084,-4.001918 -3.565691,-4.020885 -3.565691,-10.735004 0,-6.714119 3.565691,-10.7160377 3.584656,-4.020885 9.559084,-4.020885 5.974429,0 9.540119,4.020885 3.584657,4.0019187 3.584657,10.7160377 0,6.714119 -3.584657,10.735004 -3.56569,4.001918 -9.540119,4.001918 z m 0,-2.97773 q 4.191583,0 6.543422,-3.110496 2.351838,-3.129463 2.351838,-8.686629 0,-5.519234 -2.351838,-8.610763 -2.351839,-3.1104958 -6.543422,-3.1104958 -4.191582,0 -6.543421,3.1104958 -2.351838,3.091529 -2.351838,8.610763 0,5.557166 2.351838,8.686629 2.351839,3.110496 6.543421,3.110496 z"
       style="font-style:normal;font-variant:normal;font-weight:normal;font-stretch:normal;font-family:'Lucida Sans Unicode';-inkscape-font-specification:'Lucida Sans Unicode';fill:#ffffff;fill-opacity:1;stroke:#ffffff;stroke-width:2.8263123;stroke-miterlimit:4;stroke-dasharray:none;stroke-opacity:1"
       id="path852" />
    <path
       d="M 44.382138,34.490856 V 6.4205276 h 3.907086 L 62.419221,28.099166 V 6.4205276 H 65.83318 V 34.490856 H 61.94506 L 47.796097,12.812217 v 21.678639 z"
       style="font-style:normal;font-variant:normal;font-weight:normal;font-stretch:normal;font-family:'Lucida Sans Unicode';-inkscape-font-specification:'Lucida Sans Unicode';fill:#ffffff;fill-opacity:1;stroke:#ffffff;stroke-width:2.8263123;stroke-miterlimit:4;stroke-dasharray:none;stroke-opacity:1"
       id="path854" />
  </g>
</svg>
