<?xml version="1.0" encoding="utf-8"?>
<!-- Generator: Adobe Illustrator 15.1.0, SVG Export Plug-In . SVG Version: 6.00 Build 0)  -->
<!DOCTYPE svg PUBLIC "-//W3C//DTD SVG 1.1//EN" "http://www.w3.org/Graphics/SVG/1.1/DTD/svg11.dtd">
<svg version="1.1" id="Layer_1" xmlns="http://www.w3.org/2000/svg" xmlns:xlink="http://www.w3.org/1999/xlink" x="0px" y="0px"
	 width="128px" height="128px" viewBox="0 0 128 128" enable-background="new 0 0 128 128" xml:space="preserve">
<path fill="#231F20" stroke="#777777" stroke-width="4" stroke-linejoin="round" d="M51.2,17.094
	c-5.308,0-12.401,25.543-16.695,28.663c-4.293,3.12-30.778,1.973-32.418,7.021c-1.64,5.047,20.461,19.688,22.101,24.734
	c1.64,5.047-7.635,29.882-3.342,33.002c4.294,3.119,25.046-13.377,30.354-13.377c5.307,0,26.06,16.496,30.354,13.377
	c4.294-3.12-4.981-27.955-3.341-33.002c1.639-5.047,23.74-19.687,22.1-24.734c-1.64-5.048-28.125-3.901-32.418-7.021
	C63.601,42.638,56.507,17.094,51.2,17.094z"/>
</svg>
